<?xml version="1.0" encoding="UTF-8" standalone="no"?>
<!-- Created with Inkscape (http://www.inkscape.org/) -->

<svg
   xmlns:dc="http://purl.org/dc/elements/1.1/"
   xmlns:cc="http://creativecommons.org/ns#"
   xmlns:rdf="http://www.w3.org/1999/02/22-rdf-syntax-ns#"
   xmlns:svg="http://www.w3.org/2000/svg"
   xmlns="http://www.w3.org/2000/svg"
   xmlns:sodipodi="http://sodipodi.sourceforge.net/DTD/sodipodi-0.dtd"
   xmlns:inkscape="http://www.inkscape.org/namespaces/inkscape"
   width="1259.2614"
   height="1125.4862"
   id="svg2"
   version="1.1"
   inkscape:version="0.91 r13725"
   sodipodi:docname="logo.svg"
   inkscape:export-filename="/home/celebdor/code/midokura/k8s/doc/images/logo.png"
   inkscape:export-xdpi="257.3288"
   inkscape:export-ydpi="257.3288">
  <defs
     id="defs4">
    <clipPath
       id="clipPath16"
       clipPathUnits="userSpaceOnUse">
      <path
         id="path18"
         d="m 0,0 314.103,0 0,125.641 L 0,125.641 0,0 Z"
         inkscape:connector-curvature="0" />
    </clipPath>
  </defs>
  <sodipodi:namedview
     id="base"
     pagecolor="#ffffff"
     bordercolor="#666666"
     borderopacity="1.0"
     inkscape:pageopacity="0.0"
     inkscape:pageshadow="2"
     inkscape:zoom="0.50595341"
     inkscape:cx="625.13102"
     inkscape:cy="50.746615"
     inkscape:document-units="px"
     inkscape:current-layer="g3052"
     showgrid="false"
     inkscape:window-width="2560"
     inkscape:window-height="1471"
     inkscape:window-x="0"
     inkscape:window-y="55"
     inkscape:window-maximized="1"
     inkscape:snap-global="false"
     fit-margin-top="2"
     fit-margin-left="2"
     fit-margin-right="2"
     fit-margin-bottom="2" />
  <metadata
     id="metadata7">
    <rdf:RDF>
      <cc:Work
         rdf:about="">
        <dc:format>image/svg+xml</dc:format>
        <dc:type
           rdf:resource="http://purl.org/dc/dcmitype/StillImage" />
        <dc:title></dc:title>
      </cc:Work>
    </rdf:RDF>
  </metadata>
  <g
     inkscape:label="Layer 1"
     inkscape:groupmode="layer"
     id="layer1"
     transform="translate(246.28228,17.037819)">
    <g
       id="g3052">
      <g
         id="g4409"
         transform="translate(-221.36426,-687.81037)">
        <g
           transform="matrix(1.2113489,0,0,1.2113489,474.10506,628.73962)"
           id="g4398">
          <path
             id="path22"
             style="fill:#bed13d;fill-opacity:1;fill-rule:nonzero;stroke:none"
             d="m -410.30547,499.28641 c 0,-47.18796 38.26274,-85.46447 85.4507,-85.46447 47.20173,0 85.4507,38.27651 85.4507,85.46447 0,47.22928 -38.24897,85.47825 -85.4507,85.47825 -47.18796,0 -85.4507,-38.24897 -85.4507,-85.47825"
             inkscape:connector-curvature="0" />
          <path
             id="path26"
             style="fill:#bcbec0;fill-opacity:1;fill-rule:nonzero;stroke:none"
             d="m 455.0578,499.28641 c 0,-47.18796 38.26274,-85.46447 85.43693,-85.46447 47.2155,0 85.4507,38.27651 85.4507,85.46447 0,47.22928 -38.2352,85.47825 -85.4507,85.47825 -47.17419,0 -85.43693,-38.24897 -85.43693,-85.47825"
             inkscape:connector-curvature="0" />
          <path
             id="path30"
             style="fill:#d1d3d4;fill-opacity:1;fill-rule:nonzero;stroke:none"
             d="m -162.49017,57.209878 c 40.24612,-24.599445 92.84706,-11.900291 117.48783,28.345832 24.599441,40.2599 11.91406,92.84707 -28.33206,117.48783 -40.27367,24.62699 -92.86084,11.92784 -117.5016,-28.34583 -24.59945,-40.24613 -11.92784,-92.860841 28.34583,-117.487832"
             inkscape:connector-curvature="0" />
          <path
             id="path34"
             style="fill:#939598;fill-opacity:1;fill-rule:nonzero;stroke:none"
             d="m 288.95508,795.51137 c 40.24612,-24.62699 92.86084,-11.91406 117.48783,28.33206 24.59944,40.24612 11.92784,92.86083 -28.33206,117.48783 -40.27367,24.62699 -92.86084,11.91406 -117.48783,-28.34584 -24.59944,-40.24612 -11.94161,-92.84706 28.33206,-117.47405"
             inkscape:connector-curvature="0" />
          <path
             id="path38"
             style="fill:#6d6f71;fill-opacity:1;fill-rule:nonzero;stroke:none"
             d="m 361.14467,47.283327 c 41.1414,23.04304 55.81016,75.161913 32.76712,116.303313 -23.08436,41.18272 -75.16191,55.83771 -116.33085,32.76712 C 236.39822,173.2694 221.72945,121.20562 244.84136,80.009127 267.8844,38.867728 319.97572,24.198966 361.14467,47.283327"
             inkscape:connector-curvature="0" />
          <path
             id="path42"
             style="fill:#a7a9ac;fill-opacity:1;fill-rule:nonzero;stroke:none"
             d="m -61.94649,802.16948 c 41.1414,23.07059 55.8377079,75.13436 32.767121,116.33085 -23.084361,41.15518 -75.161911,55.81017 -116.317081,32.73958 -41.18272,-23.08436 -55.83771,-75.13436 -32.76712,-116.33086 23.05681,-41.15517 75.14813,-55.82393 116.31708,-32.73957"
             inkscape:connector-curvature="0" />
          <path
             id="path46"
             style="fill:#21bde4;fill-opacity:1;fill-rule:nonzero;stroke:none"
             d="M -138.64138,359.59573 105.54874,216.02092 351.98393,355.69783 354.2841,638.9771 110.05266,782.59323 -136.38253,642.88877 -138.64138,359.59573 Z"
             inkscape:connector-curvature="0" />
        </g>
        <path
           inkscape:export-ydpi="250.55"
           inkscape:export-xdpi="250.55"
           inkscape:export-filename="./path3059.png"
           sodipodi:nodetypes="ccccccccsccccscssccsccccccccscccsccccccccccccccscccscsccsccccscscsccccccccscccscsccccsccccscscscccccccccccccccscccsccccccccccccscccccscccccccccccccccccccccccscccscccccccccscccscccc"
           style="color:#000000;font-style:normal;font-variant:normal;font-weight:normal;font-stretch:normal;font-size:medium;line-height:normal;font-family:Sans;-inkscape-font-specification:Sans;text-indent:0;text-align:start;text-decoration:none;text-decoration-line:none;letter-spacing:normal;word-spacing:normal;text-transform:none;direction:ltr;block-progression:tb;writing-mode:lr-tb;baseline-shift:baseline;text-anchor:start;display:inline;overflow:visible;visibility:visible;fill:#ffffff;fill-opacity:1;stroke:#ffffff;stroke-width:0.25;stroke-miterlimit:4;stroke-dasharray:none;stroke-opacity:1;marker:none;enable-background:accumulate"
           d="m 604.90965,959.89354 c -8.07696,8e-4 -14.62596,7.2759 -14.625,16.25 10e-6,0.1377 0.0282,0.2693 0.0312,0.4062 -0.0119,1.2194 -0.0708,2.6884 -0.0312,3.75 0.19262,5.176 1.3209,9.1375 2,13.9063 1.23028,10.20656 2.26117,18.66726 1.625,26.53116 -0.61869,2.9654 -2.80288,5.6774 -4.75,7.5625 l -0.34375,6.1875 c -8.77682,0.7272 -17.61235,2.0588 -26.4375,4.0625 -37.97461,8.6222 -70.67008,28.1831 -95.5625,54.5938 -1.61522,-1.1019 -4.44103,-3.1292 -5.2813,-3.75 -2.61117,0.3526 -5.25021,1.1583 -8.6875,-0.8438 -6.54491,-4.4056 -12.50587,-10.4869 -19.71875,-17.8125 -3.30498,-3.5042 -5.69832,-6.841 -9.625,-10.2187 -0.89172,-0.7671 -2.25258,-1.8046 -3.25,-2.5938 -3.06988,-2.4475 -6.6907,-3.724 -10.1875,-3.8437 -4.49589,-0.154 -8.82394,1.6038 -11.65625,5.1562 -5.03521,6.3154 -3.42312,15.9681 3.59375,21.5625 0.0712,0.057 0.14702,0.1008 0.21875,0.1563 0.96422,0.7816 2.14496,1.7831 3.03125,2.4375 4.16687,3.0765 7.9732,4.6514 12.125,7.0937 8.747,5.4018 15.99837,9.8809 21.75,15.2813 2.24602,2.3942 2.63858,6.6129 2.9375,8.4375 l 4.6875,4.1875 c -25.09342,37.7637 -36.70686,84.4094 -29.8437,131.9375 l -6.125,1.7812 c -1.6143,2.0846 -3.89541,5.3648 -6.2813,6.3438 -7.52513,2.3702 -15.99424,3.2406 -26.21875,4.3125 -4.80031,0.3991 -8.94218,0.1609 -14.03125,1.125 -1.12008,0.2122 -2.68072,0.6188 -3.90625,0.9062 -0.0426,0.01 -0.0824,0.022 -0.125,0.031 -0.0668,0.015 -0.15456,0.048 -0.21875,0.062 -8.62014,2.0828 -14.15774,10.006 -12.375,17.8125 1.78316,7.8084 10.20314,12.5568 18.875,10.6875 0.0626,-0.014 0.1535,-0.017 0.21875,-0.031 0.0979,-0.022 0.18409,-0.07 0.28125,-0.094 1.20885,-0.2653 2.72377,-0.5606 3.78125,-0.8437 5.00334,-1.3396 8.62694,-3.308 13.125,-5.0313 9.67694,-3.4707 17.69173,-6.3702 25.5,-7.5 3.26118,-0.2554 6.69711,2.0122 8.40625,2.9688 l 6.375,-1.0938 c 14.67018,45.4829 45.41416,82.245 84.34375,105.3125 l -2.65625,6.375 c 0.95742,2.4755 2.01341,5.8247 1.30022,8.2693 -2.83868,7.3613 -7.70097,15.131 -13.23772,23.7932 -2.68085,4.002 -5.42453,7.1076 -7.84375,11.6875 -0.5789,1.0959 -1.31618,2.7794 -1.875,3.9375 -3.75884,8.0424 -1.00164,17.3052 6.21875,20.7813 7.26575,3.4979 16.28447,-0.1914 20.1875,-8.25 0.006,-0.011 0.0257,-0.02 0.0312,-0.031 0.004,-0.01 -0.004,-0.023 0,-0.031 0.55593,-1.1426 1.34353,-2.6444 1.8125,-3.7188 2.07213,-4.747 2.76161,-8.815 4.21875,-13.4062 3.86962,-9.7202 5.99567,-19.919 11.32258,-26.2741 1.45868,-1.7403 3.83681,-2.4095 6.30242,-3.0697 l 3.3125,-6 c 33.93824,13.0268 71.92666,16.5225 109.875,7.9063 8.65697,-1.9656 17.01444,-4.5095 25.09375,-7.5625 0.93098,1.6513 2.66113,4.8257 3.125,5.625 2.50559,0.8152 5.24044,1.2361 7.46875,4.5312 3.98539,6.809 6.7109,14.8642 10.03125,24.5938 1.45738,4.5911 2.17762,8.6593 4.25,13.4062 0.47234,1.082 1.256,2.6049 1.8125,3.75 3.89482,8.0849 12.94212,11.7867 20.21875,8.2813 7.2195,-3.4779 9.97974,-12.7399 6.21875,-20.7813 -0.55889,-1.1581 -1.3273,-2.8416 -1.90625,-3.9375 -2.41946,-4.5797 -5.1627,-7.6544 -7.84375,-11.6562 -5.53721,-8.6619 -10.12968,-15.8577 -12.96875,-23.2188 -1.18711,-3.7965 0.20028,-6.1577 1.125,-8.625 -0.55378,-0.6347 -1.73881,-4.2201 -2.4375,-5.9062 40.4574,-23.8882 70.29856,-62.0213 84.3125,-106.0625 1.8924,0.2974 5.18154,0.8793 6.25,1.0937 2.19954,-1.4507 4.22194,-3.3435 8.1875,-3.0312 7.80832,1.1293 15.82288,4.0297 25.5,7.5 4.49815,1.723 8.1216,3.7231 13.125,5.0625 1.05749,0.2831 2.57238,0.5472 3.78125,0.8125 0.0972,0.024 0.1833,0.071 0.28125,0.094 0.0653,0.015 0.15615,0.017 0.21875,0.031 8.67236,1.8669 17.09384,-2.8787 18.875,-10.6875 1.78074,-7.807 -3.7543,-15.732 -12.375,-17.8125 -1.25393,-0.2851 -3.03225,-0.7694 -4.25,-1 -5.08912,-0.9638 -9.23092,-0.7261 -14.03125,-1.125 -10.22456,-1.0714 -18.6935,-1.9427 -26.21875,-4.3125 -3.06826,-1.1903 -5.25103,-4.8413 -6.31255,-6.3438 l -5.90625,-1.7187 c 3.06226,-22.1544 2.23655,-45.2114 -3.0625,-68.2813 -5.34839,-23.2847 -14.80037,-44.5808 -27.40625,-63.3437 1.51505,-1.3773 4.37619,-3.9109 5.1875,-4.6563 0.23716,-2.6241 0.0334,-5.3755 2.75,-8.2812 5.75134,-5.4007 13.00329,-9.879 21.75,-15.2813 4.15167,-2.4425 7.98954,-4.0169 12.15625,-7.0937 0.94225,-0.6958 2.2289,-1.7976 3.21875,-2.5938 7.01538,-5.5963 8.63058,-15.2484 3.59375,-21.5625 -5.03683,-6.314 -14.79712,-6.9088 -21.8125,-1.3125 -0.99856,0.7909 -2.35353,1.8226 -3.25,2.5938 -3.9265,3.3779 -6.35145,6.7144 -9.65625,10.2187 -7.21249,7.326 -13.17407,13.4378 -19.71875,17.8438 -2.83601,1.651 -6.98996,1.0798 -8.87505,0.9687 l -5.5625,3.9688 c -31.7188,-33.2606 -74.90466,-54.5255 -121.40605,-58.6563 -0.13006,-1.9487 -0.30045,-5.4712 -0.34375,-6.5313 -1.90371,-1.8216 -4.20342,-3.3768 -4.78125,-7.3125 -0.63617,-7.8639 0.42597,-16.3246 1.65625,-26.53116 0.6791,-4.7688 1.80738,-8.7303 2,-13.9063 0.0438,-1.1766 -0.0265,-2.884 -0.0312,-4.1562 -9.6e-4,-8.9741 -6.54804,-16.2508 -14.625,-16.25 z m -18.3125,113.43746 -4.34375,76.7187 -0.3125,0.1563 c -0.29134,6.8633 -5.93996,12.3437 -12.875,12.3437 -2.84081,0 -5.46294,-0.9123 -7.59375,-2.4687 l -0.125,0.062 -62.90625,-44.5938 c 19.33365,-19.0111 44.06291,-33.0604 72.5625,-39.5312 5.20599,-1.182 10.40966,-2.0591 15.59375,-2.6875 z m 36.65625,0 c 33.27347,4.0923 64.04501,19.1588 87.625,42.25 l -62.5,44.3125 -0.21875,-0.094 c -5.54745,4.0517 -13.36343,3.0464 -17.6875,-2.375 -1.77132,-2.221 -2.70072,-4.8324 -2.8125,-7.4688 l -0.0625,-0.031 z m -147.625,70.875 57.4375,51.375 -0.0625,0.3125 c 5.18437,4.507 5.94888,12.3279 1.625,17.75 -1.7712,2.221 -4.14208,3.7107 -6.6875,4.4062 l -0.0625,0.25 -73.625,21.25 c -3.74728,-34.2651 4.32855,-67.5736 21.375,-95.3437 z m 258.15625,0.031 c 8.5341,13.8325 14.99655,29.2821 18.84375,46.0312 3.80106,16.5483 4.75499,33.067 3.1875,49.0313 l -74,-21.3125 -0.0625,-0.3125 c -6.6265,-1.8111 -10.69893,-8.5516 -9.15625,-15.3125 0.63203,-2.7696 2.10222,-5.1127 4.09375,-6.8438 l -0.0312,-0.1562 57.125,-51.125 z m -140.65625,55.3125 23.53125,0 14.625,18.2812 -5.25,22.8125 -21.125,10.1563 -21.1875,-10.1875 -5.25,-22.8125 z m 75.4375,62.5625 c 0.99997,-0.051 1.99558,0.04 2.96875,0.2187 l 0.125,-0.1562 76.15625,12.875 c -11.1455,31.3131 -32.47281,58.4402 -60.96875,76.5937 l -29.5625,-71.4062 0.0937,-0.125 c -2.71561,-6.31 0.002,-13.7096 6.25,-16.7188 1.59965,-0.7704 3.27089,-1.197 4.9375,-1.2812 z m -127.90625,0.3125 c 5.81174,0.082 11.02462,4.1152 12.375,10.0312 0.63219,2.7696 0.3245,5.5138 -0.71875,7.9375 l 0.21875,0.2813 -29.25,70.6875 c -27.34716,-17.5486 -49.12927,-43.824 -60.78125,-76.0625 l 75.5,-12.8125 0.125,0.1563 c 0.84451,-0.1554 1.701,-0.2304 2.53125,-0.2188 z m 63.78125,30.9688 c 2.02445,-0.074 4.07865,0.341 6.03125,1.2812 2.55951,1.2326 4.53673,3.1732 5.78125,5.5 l 0.28125,0 37.21875,67.25 c -4.83029,1.6193 -9.79609,3.0031 -14.875,4.1563 -28.46453,6.4629 -56.83862,4.5047 -82.53125,-4.25 l 37.125,-67.125 0.0625,0 c 2.22767,-4.1644 6.45247,-6.6489 10.90625,-6.8125 z"
           id="path3059"
           inkscape:connector-curvature="0" />
      </g>
    </g>
  </g>
</svg>
